<svg width="34" height="34" viewBox="0 0 34 34" fill="none" xmlns="http://www.w3.org/2000/svg">
<g clip-path="url(#clip0_500_583)">
<path fill-rule="evenodd" clip-rule="evenodd" d="M9.97841 0.20864C7.21101 0.333505 4.81238 1.0101 2.87554 2.93877C0.931931 4.87757 0.26374 7.2857 0.138564 10.0243C0.0607519 11.7336 -0.394254 24.6471 0.925167 28.0337C1.81493 30.3184 3.56735 32.0751 5.87295 32.9677C6.94879 33.3861 8.1769 33.6694 9.97841 33.7521C25.0418 34.4338 30.6256 34.0627 32.9803 28.0337C33.3981 26.9605 33.6857 25.7335 33.7652 23.9364C34.4537 8.8344 33.6536 5.56095 31.0283 2.93877C28.9459 0.861605 26.4965 -0.552365 9.97841 0.20864ZM10.1171 30.7148C8.46781 30.6406 7.57299 30.3658 6.97587 30.1346C5.47376 29.5508 4.34549 28.4272 3.76528 26.9338C2.76049 24.3606 3.09374 12.1389 3.18339 10.1613C3.27136 8.22416 3.66379 6.45377 5.03058 5.08701C6.72214 3.39962 8.90762 2.57265 23.7883 3.24424C25.7302 3.33197 27.5047 3.72361 28.8749 5.08701C30.5664 6.77438 31.4055 8.97668 30.7221 23.8003C30.6476 25.4455 30.3719 26.3382 30.1402 26.9338C28.6093 30.857 25.0874 31.4016 10.1171 30.7148ZM23.9524 7.97236C23.9524 9.08941 24.8608 9.99775 25.9823 9.99775C27.1038 9.99775 28.0139 9.08941 28.0139 7.97236C28.0139 6.85532 27.1038 5.9478 25.9823 5.9478C24.8608 5.9478 23.9524 6.85532 23.9524 7.97236ZM8.26653 16.9795C8.26653 21.7649 12.1555 25.6447 16.9527 25.6447C21.75 25.6447 25.6389 21.7649 25.6389 16.9795C25.6389 12.1941 21.75 8.31684 16.9527 8.31684C12.1555 8.31684 8.26653 12.1941 8.26653 16.9795ZM11.3147 16.9795C11.3147 13.8748 13.8386 11.3558 16.9527 11.3558C20.0669 11.3558 22.5907 13.8748 22.5907 16.9795C22.5907 20.086 20.0669 22.6058 16.9527 22.6058C13.8386 22.6058 11.3147 20.086 11.3147 16.9795Z" fill="#5148FF"/>
</g>
<defs>
<clipPath id="clip0_500_583">
<rect width="34" height="34" fill="white"/>
</clipPath>
</defs>
</svg>
