<svg width="34" height="34" viewBox="0 0 34 34" fill="none" xmlns="http://www.w3.org/2000/svg">
<g clip-path="url(#clip0_500_573)">
<path d="M9.2085 11.334C10.3821 11.334 11.3335 10.3826 11.3335 9.20898C11.3335 8.03538 10.3821 7.08398 9.2085 7.08398C8.03489 7.08398 7.0835 8.03538 7.0835 9.20898C7.0835 10.3826 8.03489 11.334 9.2085 11.334Z" fill="#5148FF"/>
<path d="M7.0835 14.1667C7.0835 13.3843 7.71777 12.75 8.50016 12.75H9.91683C10.6992 12.75 11.3335 13.3843 11.3335 14.1667V25.5C11.3335 26.2824 10.6992 26.9167 9.91683 26.9167H8.50016C7.71777 26.9167 7.0835 26.2824 7.0835 25.5V14.1667Z" fill="#5148FF"/>
<path d="M15.5832 26.9167H16.9998C17.7823 26.9167 18.4165 26.2824 18.4165 25.5V19.125C18.4165 17 22.6665 15.5833 22.6665 18.4167V25.5006C22.6665 26.283 23.3007 26.9167 24.0832 26.9167H25.4998C26.2823 26.9167 26.9165 26.2824 26.9165 25.5V17C26.9165 14.1667 24.7915 12.75 21.9582 12.75C19.1248 12.75 18.4165 14.875 18.4165 14.875V14.1667C18.4165 13.3843 17.7823 12.75 16.9998 12.75H15.5832C14.8007 12.75 14.1665 13.3843 14.1665 14.1667V25.5C14.1665 26.2824 14.8007 26.9167 15.5832 26.9167Z" fill="#5148FF"/>
<path fill-rule="evenodd" clip-rule="evenodd" d="M29.3636 0C31.9243 0 34 2.07578 34 4.63636V29.3636C34 31.9243 31.9243 34 29.3636 34H4.63636C2.07578 34 0 31.9243 0 29.3636V4.63636C0 2.07578 2.07578 0 4.63636 0H29.3636ZM29.3636 3.09091C30.2172 3.09091 30.9091 3.78284 30.9091 4.63636V29.3636C30.9091 30.2172 30.2172 30.9091 29.3636 30.9091H4.63636C3.78284 30.9091 3.09091 30.2172 3.09091 29.3636V4.63636C3.09091 3.78284 3.78284 3.09091 4.63636 3.09091H29.3636Z" fill="#5148FF"/>
</g>
<defs>
<clipPath id="clip0_500_573">
<rect width="34" height="34" fill="white"/>
</clipPath>
</defs>
</svg>
