<svg width="34" height="34" viewBox="0 0 34 34" fill="none" xmlns="http://www.w3.org/2000/svg">
<g clip-path="url(#clip0_500_588)">
<path fill-rule="evenodd" clip-rule="evenodd" d="M13.5803 21.395V11.8549C16.9671 13.4486 19.5901 14.9881 22.6924 16.6478C20.1337 18.0668 16.9671 19.659 13.5803 21.395ZM32.4547 7.11022C31.8705 6.34052 30.8748 5.74138 29.8148 5.54303C26.6989 4.95134 7.26068 4.94966 4.14656 5.54303C3.29648 5.70239 2.53952 6.08758 1.88927 6.68605C-0.850616 9.22907 0.00793251 22.8665 0.66835 25.0756C0.946062 26.0318 1.30507 26.7214 1.75721 27.174C2.33973 27.7725 3.13729 28.1846 4.05341 28.3693C6.61887 28.9 19.8357 29.1967 29.7605 28.449C30.675 28.2897 31.4844 27.8643 32.1228 27.2404C34.6561 24.7076 34.4834 10.3043 32.4547 7.11022Z" fill="#5148FF"/>
</g>
<defs>
<clipPath id="clip0_500_588">
<rect width="34" height="34" fill="white"/>
</clipPath>
</defs>
</svg>
